<svg xmlns="http://www.w3.org/2000/svg" xmlns:xlink="http://www.w3.org/1999/xlink" width="240" zoomAndPan="magnify" viewBox="0 0 180 179.999997" height="240" preserveAspectRatio="xMidYMid meet" version="1.0"><defs><clipPath id="068e2c2c1a"><path d="M 26.390625 31.238281 L 153.890625 31.238281 L 153.890625 148.988281 L 26.390625 148.988281 Z M 26.390625 31.238281 " clip-rule="nonzero"/></clipPath></defs><g clip-path="url(#068e2c2c1a)"><path fill="#a6a6a6" d="M 143.820312 99.777344 L 78.585938 99.777344 C 73.179688 99.777344 68.796875 95.394531 68.796875 89.988281 C 68.796875 84.582031 73.179688 80.199219 78.585938 80.199219 L 143.820312 80.199219 C 149.226562 80.199219 153.609375 84.582031 153.609375 89.988281 C 153.609375 95.394531 149.226562 99.777344 143.820312 99.777344 Z M 143.820312 54.101562 L 78.585938 54.101562 C 73.179688 54.101562 68.796875 49.71875 68.796875 44.3125 C 68.796875 38.90625 73.179688 34.523438 78.585938 34.523438 L 143.820312 34.523438 C 149.226562 34.523438 153.609375 38.90625 153.609375 44.3125 C 153.609375 49.71875 149.226562 54.101562 143.820312 54.101562 Z M 39.429688 148.703125 C 32.226562 148.703125 26.390625 142.867188 26.390625 135.664062 C 26.390625 128.460938 32.226562 122.625 39.429688 122.625 C 46.632812 122.625 52.46875 128.460938 52.46875 135.664062 C 52.488281 142.847656 46.648438 148.703125 39.429688 148.703125 Z M 39.429688 103.027344 C 32.226562 103.027344 26.390625 97.191406 26.390625 89.988281 C 26.390625 82.785156 32.226562 76.949219 39.429688 76.949219 C 46.632812 76.949219 52.46875 82.785156 52.46875 89.988281 C 52.46875 97.191406 46.648438 103.027344 39.429688 103.027344 Z M 39.429688 57.371094 C 32.226562 57.371094 26.390625 51.535156 26.390625 44.332031 C 26.390625 37.128906 32.226562 31.292969 39.429688 31.292969 C 46.632812 31.292969 52.46875 37.128906 52.46875 44.332031 C 52.46875 51.535156 46.648438 57.371094 39.429688 57.371094 Z M 78.585938 125.855469 L 143.820312 125.855469 C 149.226562 125.855469 153.609375 130.238281 153.609375 135.644531 C 153.609375 141.050781 149.226562 145.433594 143.820312 145.433594 L 78.585938 145.433594 C 73.179688 145.433594 68.796875 141.050781 68.796875 135.644531 C 68.796875 130.238281 73.179688 125.855469 78.585938 125.855469 Z M 78.585938 125.855469 " fill-opacity="1" fill-rule="nonzero"/></g></svg>