<svg xmlns="http://www.w3.org/2000/svg" xmlns:xlink="http://www.w3.org/1999/xlink" width="240" zoomAndPan="magnify" viewBox="0 0 180 179.999997" height="240" preserveAspectRatio="xMidYMid meet" version="1.0"><defs><clipPath id="af34a4fa02"><path d="M 25.050781 25.050781 L 154.800781 25.050781 L 154.800781 154.800781 L 25.050781 154.800781 Z M 25.050781 25.050781 " clip-rule="nonzero"/></clipPath></defs><g clip-path="url(#af34a4fa02)"><path fill="#a6a6a6" d="M 89.996094 154.941406 C 72.648438 154.941406 56.339844 148.1875 44.074219 135.921875 C 31.808594 123.652344 25.050781 107.34375 25.050781 89.996094 C 25.050781 72.648438 31.808594 56.339844 44.074219 44.074219 C 56.339844 31.808594 72.648438 25.050781 89.996094 25.050781 C 107.34375 25.050781 123.652344 31.808594 135.921875 44.074219 C 148.1875 56.339844 154.941406 72.648438 154.941406 89.996094 C 154.941406 107.34375 148.1875 123.652344 135.921875 135.921875 C 123.65625 148.1875 107.34375 154.941406 89.996094 154.941406 Z M 89.996094 34.964844 C 59.652344 34.964844 34.964844 59.652344 34.964844 89.996094 C 34.964844 120.34375 59.652344 145.03125 89.996094 145.03125 C 120.34375 145.03125 145.03125 120.339844 145.03125 89.996094 C 145.03125 59.652344 120.34375 34.964844 89.996094 34.964844 Z M 89.996094 34.964844 " fill-opacity="1" fill-rule="nonzero"/></g><path fill="#a6a6a6" d="M 111.554688 115.074219 C 110.589844 115.074219 109.613281 114.792969 108.753906 114.203125 L 84.613281 97.648438 C 83.261719 96.722656 82.457031 95.191406 82.460938 93.554688 L 82.523438 53.039062 C 82.527344 50.304688 84.746094 48.089844 87.476562 48.089844 C 87.480469 48.089844 87.484375 48.089844 87.484375 48.089844 C 90.21875 48.09375 92.4375 50.316406 92.433594 53.054688 L 92.375 90.953125 L 114.359375 106.03125 C 116.617188 107.578125 117.191406 110.664062 115.644531 112.921875 C 114.683594 114.320312 113.132812 115.074219 111.554688 115.074219 Z M 111.554688 115.074219 " fill-opacity="1" fill-rule="nonzero"/></svg>