<svg xmlns="http://www.w3.org/2000/svg" xmlns:xlink="http://www.w3.org/1999/xlink" width="240" zoomAndPan="magnify" viewBox="0 0 180 179.999997" height="240" preserveAspectRatio="xMidYMid meet" version="1.0"><defs><clipPath id="299323f9b3"><path d="M 38.59375 38.59375 L 141 38.59375 L 141 141 L 38.59375 141 Z M 38.59375 38.59375 " clip-rule="nonzero"/></clipPath></defs><g clip-path="url(#299323f9b3)"><path fill="#ffffff" d="M 104.675781 113.773438 L 129.855469 138.945312 C 132.347656 141.4375 136.398438 141.4375 138.890625 138.945312 C 141.382812 136.449219 141.382812 132.402344 138.890625 129.910156 L 113.726562 104.753906 C 118.789062 97.867188 121.78125 89.367188 121.78125 80.167969 C 121.78125 57.222656 103.152344 38.59375 80.207031 38.59375 C 57.261719 38.59375 38.632812 57.222656 38.632812 80.167969 C 38.632812 103.113281 57.261719 121.742188 80.207031 121.742188 C 89.351562 121.742188 97.808594 118.785156 104.675781 113.773438 Z M 80.207031 51.371094 C 96.101562 51.371094 109.003906 64.277344 109.003906 80.167969 C 109.003906 96.0625 96.101562 108.964844 80.207031 108.964844 C 64.3125 108.964844 51.410156 96.0625 51.410156 80.167969 C 51.410156 64.277344 64.3125 51.371094 80.207031 51.371094 Z M 80.207031 51.371094 " fill-opacity="1" fill-rule="evenodd"/></g></svg>