<svg xmlns="http://www.w3.org/2000/svg" xmlns:xlink="http://www.w3.org/1999/xlink" width="240" zoomAndPan="magnify" viewBox="0 0 180 179.999997" height="240" preserveAspectRatio="xMidYMid meet" version="1.0"><defs><clipPath id="296b8658ae"><path d="M 26.75 29.625 L 88 29.625 L 88 88 L 26.75 88 Z M 26.75 29.625 " clip-rule="nonzero"/></clipPath><clipPath id="61b0bb54fe"><path d="M 26.75 92 L 88 92 L 88 150.375 L 26.75 150.375 Z M 26.75 92 " clip-rule="nonzero"/></clipPath><clipPath id="265f9c3cf3"><path d="M 92 29.625 L 153.5 29.625 L 153.5 88 L 92 88 Z M 92 29.625 " clip-rule="nonzero"/></clipPath><clipPath id="33f2ec2c1f"><path d="M 92 92 L 153.5 92 L 153.5 150.375 L 92 150.375 Z M 92 92 " clip-rule="nonzero"/></clipPath></defs><g clip-path="url(#296b8658ae)"><path fill="#a6a6a6" d="M 26.75 35.378906 C 26.75 32.203125 29.324219 29.628906 32.5 29.628906 L 81.371094 29.628906 C 84.546875 29.628906 87.121094 32.203125 87.121094 35.378906 L 87.121094 81.375 C 87.121094 84.550781 84.546875 87.125 81.371094 87.125 L 32.5 87.125 C 29.324219 87.125 26.75 84.550781 26.75 81.375 Z M 38.25 41.128906 L 38.25 75.625 L 75.621094 75.625 L 75.621094 41.128906 Z M 38.25 41.128906 " fill-opacity="1" fill-rule="evenodd"/></g><g clip-path="url(#61b0bb54fe)"><path fill="#a6a6a6" d="M 26.75 98.625 C 26.75 95.449219 29.324219 92.875 32.5 92.875 L 81.371094 92.875 C 84.546875 92.875 87.121094 95.449219 87.121094 98.625 L 87.121094 144.621094 C 87.121094 147.796875 84.546875 150.371094 81.371094 150.371094 L 32.5 150.371094 C 29.324219 150.371094 26.75 147.796875 26.75 144.621094 Z M 38.25 104.375 L 38.25 138.871094 L 75.621094 138.871094 L 75.621094 104.375 Z M 38.25 104.375 " fill-opacity="1" fill-rule="evenodd"/></g><g clip-path="url(#265f9c3cf3)"><path fill="#a6a6a6" d="M 92.871094 35.378906 C 92.871094 32.203125 95.445312 29.628906 98.621094 29.628906 L 147.492188 29.628906 C 150.667969 29.628906 153.242188 32.203125 153.242188 35.378906 L 153.242188 81.375 C 153.242188 84.550781 150.667969 87.125 147.492188 87.125 L 98.621094 87.125 C 95.445312 87.125 92.871094 84.550781 92.871094 81.375 Z M 104.371094 41.128906 L 104.371094 75.625 L 141.742188 75.625 L 141.742188 41.128906 Z M 104.371094 41.128906 " fill-opacity="1" fill-rule="evenodd"/></g><g clip-path="url(#33f2ec2c1f)"><path fill="#a6a6a6" d="M 92.871094 98.625 C 92.871094 95.449219 95.445312 92.875 98.621094 92.875 L 147.492188 92.875 C 150.667969 92.875 153.242188 95.449219 153.242188 98.625 L 153.242188 144.621094 C 153.242188 147.796875 150.667969 150.371094 147.492188 150.371094 L 98.621094 150.371094 C 95.445312 150.371094 92.871094 147.796875 92.871094 144.621094 Z M 104.371094 104.375 L 104.371094 138.871094 L 141.742188 138.871094 L 141.742188 104.375 Z M 104.371094 104.375 " fill-opacity="1" fill-rule="evenodd"/></g></svg>